<svg xmlns="http://www.w3.org/2000/svg" viewBox="0 0 512 375.57"><g id="katman_2" data-name="katman 2"><g id="katman_1-2" data-name="katman 1"><path d="M0,13.14C4,3.43,11.15,0,21.59,0Q255.75.3,489.91,0C500.46,0,508,3.14,512,13.14v213c-4.08,10-11.62,13.11-22.14,13.1Q256,239,22.15,239.25c-10.51,0-18.08-3.12-22.15-13.1ZM17.19,221.68H494.64V17.57H17.19Z"/><path d="M102.4,375.57a59.71,59.71,0,1,1,59.66-59.84A59.59,59.59,0,0,1,102.4,375.57Zm-.14-17.12a42.62,42.62,0,1,0-42.41-42.61A42.46,42.46,0,0,0,102.26,358.45Z"/><path d="M204.83,341.37a25.55,25.55,0,0,1-25.67-25.2,25.85,25.85,0,0,1,25.58-25.92,25.56,25.56,0,0,1,.09,51.12ZM213.18,316a8.48,8.48,0,0,0-8.44-8.61,8.76,8.76,0,0,0-8.48,8.7,8.55,8.55,0,0,0,8.32,8.25A8.23,8.23,0,0,0,213.18,316Z"/><path d="M435.1,316a25.55,25.55,0,0,1-51.09-.31,25.55,25.55,0,1,1,51.09.31ZM418,315.66a8.61,8.61,0,0,0-8.79-8.31,8.75,8.75,0,0,0-8.17,8.49,8.44,8.44,0,0,0,8.61,8.44A8.29,8.29,0,0,0,418,315.66Z"/><path d="M307,341.37a25.26,25.26,0,0,1-25.27-25.47,25.55,25.55,0,0,1,25.73-25.65,25.86,25.86,0,0,1,25.4,25.6A25.56,25.56,0,0,1,307,341.37Zm.35-34a8.47,8.47,0,0,0-8.51,8.54,8.16,8.16,0,0,0,8,8.39,8.52,8.52,0,0,0,8.89-8.15A8.75,8.75,0,0,0,307.33,307.34Z"/><path d="M273,119.35q0,33,0,66c0,12.94-6.77,19.69-19.75,19.7q-65.71,0-131.44,0c-12.61,0-19.48-6.83-19.49-19.46q-.06-66,0-131.95c0-12.66,6.85-19.38,19.54-19.39q66,0,131.94,0c12.4,0,19.18,6.78,19.2,19.14Q273.08,86.35,273,119.35ZM255,162.48l.75-.41V51.6h-136v94.63c1.45-2.4,2.33-3.73,3.09-5.12,5-9.05,10-18.05,14.79-27.18,3.38-6.43,8.34-10.48,15.68-10.59,7.56-.11,12.71,3.94,16.22,10.53,6.67,12.47,13.51,24.84,20.29,37.25.75,1.35,1.59,2.65,2.69,4.47,4.8-8.81,8.87-17.24,13.89-25a24.89,24.89,0,0,1,10.06-9c7.82-3.47,16.1.27,20.62,8.33C243.17,140.67,249,151.6,255,162.48ZM153.62,120.36c-11.44,21-22.46,41.08-33.31,61.27-.89,1.66-.59,4-.87,6.09h70.88Zm68.26,17.11L208,162.85c-6.1,11.19-6.1,11.19.21,22.05.25.43.4,1,.76,1.27.85.67,1.8,1.69,2.72,1.7,12.24.11,24.48.08,37.65.08Z"/><path d="M354,42.89c17.81,0,35.62-.11,53.43.12,2.78,0,6.15.86,8.17,2.58,4.71,4,2.76,11.64-3.19,13.63a18.67,18.67,0,0,1-5.89.71Q354,60,301.61,60a29.84,29.84,0,0,1-3-.06c-5.1-.54-8.6-4.17-8.49-8.76S293.78,43,299,43c18.31-.11,36.61,0,54.92,0Z"/><path d="M54,118.81l25,25.06c1.17,1.18,2.41,2.3,3.5,3.56,3.39,3.92,3.43,8.85.18,12.15-3.45,3.51-8.5,3.52-12.44-.37-11.14-11-22.15-22.11-33.21-33.18a3.92,3.92,0,0,1-.34-.37c-3.48-4-3.72-8.24,0-12Q53.52,96.48,70.64,79.69c3.71-3.65,8.74-3.54,12.08-.26s3.46,8.59-.34,12.49c-7.78,8-15.71,15.85-23.67,23.67A32.18,32.18,0,0,1,54,118.81Z"/><path d="M457.38,119.46l-25-24.77c-1.06-1-2.18-2.06-3.14-3.2-3.13-3.71-3.13-8.53-.06-11.75a8.28,8.28,0,0,1,12.06-.16c5.35,5,10.43,10.27,15.61,15.44,6,6,12.08,11.92,17.95,18,4.26,4.42,4.25,8.78-.06,13.15q-16.47,16.7-33.18,33.16c-4,3.9-9,3.9-12.42.43s-3.35-8.61.46-12.48C438.65,138.07,447.87,129,457.38,119.46Z"/><path d="M345.89,77q22.2,0,44.41,0c6.89,0,10.65,3,10.7,8.37s-3.89,8.65-10.54,8.65q-44.91,0-89.82,0c-6.53,0-10.61-3.48-10.51-8.73s4-8.27,10.35-8.29Q323.18,77,345.89,77Z"/><path d="M332.8,128.15c-10.82,0-21.64,0-32.47,0-6.19,0-10.2-3.43-10.21-8.51s4-8.49,10.19-8.5q32.46,0,64.92,0c6.38,0,10.1,3.21,10.1,8.48s-3.73,8.5-10.07,8.53C354.44,128.18,343.62,128.15,332.8,128.15Z"/><path d="M320,162.22c-6.81,0-13.63.07-20.44,0-5.54-.08-9.26-3.43-9.41-8.23s3.74-8.71,9.43-8.75q20.44-.15,40.89,0c5.69,0,9.58,3.85,9.41,8.78s-3.89,8.12-9.43,8.2C333.61,162.29,326.8,162.22,320,162.22Z"/><path d="M307.14,196.3c-2.83,0-5.66.12-8.49,0-4.9-.25-8.32-3.57-8.51-8.07-.18-4.2,2.9-8.37,7.37-8.66a145,145,0,0,1,19.44,0c4.55.32,7.35,4.3,7.16,8.73s-3.26,7.64-8,8c-3,.19-6,0-9,0Z"/><path d="M102.19,341.37A25.29,25.29,0,0,1,76.9,315.42a25.55,25.55,0,1,1,25.29,25.95Zm.3-34A8.61,8.61,0,0,0,94,315.92a8.24,8.24,0,0,0,8.1,8.35,8.44,8.44,0,0,0,8.84-8.19A8.76,8.76,0,0,0,102.49,307.33Z"/><path d="M196.41,60A25.55,25.55,0,0,1,221.9,85.36a25.81,25.81,0,0,1-25.76,25.73,25.5,25.5,0,0,1-25.35-26A25.24,25.24,0,0,1,196.41,60Zm8.4,25.49a8.54,8.54,0,0,0-8.68-8.4,8.17,8.17,0,0,0-8.25,8.17A8.47,8.47,0,0,0,196.16,94,8.79,8.79,0,0,0,204.81,85.47Z"/></g></g></svg>