<svg xmlns="http://www.w3.org/2000/svg" viewBox="0 0 366.23 363.23"><g id="katman_2" data-name="katman 2"><g id="katman_1-2" data-name="katman 1"><path d="M124.63,363.23l-9.07-7.8,27.48-32c-2.14,0-3.56.06-5,0-9.58-.46-19.4.22-28.68-1.7C91.49,318,78.57,301.27,78.14,283c-.24-10.46,0-20.94,0-31.87L65,258.66c-1.72-3.84-3.27-7.31-4.63-10.33C65.77,244.43,71.21,241.1,76,237c10.36-9,16.81-20.41,16.77-34.23,0-14.45,4.24-26.86,13.61-37.72a84.2,84.2,0,0,0,5.6-8c4.16-6.18,3.18-13.25-2.36-17.22s-13-2.63-17.32,3.57q-25,35.51-49.9,71.07-15.16,21.59-30.31,43.2c-.7,1-1.48,1.95-2.39,3.15L0,254.17c.93-1.38,1.78-2.69,2.67-4Q39.42,197.8,76.1,145.36A11.44,11.44,0,0,0,78,139.21c.11-31.68.07-63.37.08-95.06C78.07,17.93,96,0,122.33,0H249.84c26.34,0,44.23,17.87,44.26,44.15,0,5.1,0,10.19,0,15.74,9.35,0,18.43-.15,27.5.06a61.13,61.13,0,0,1,13,1.42c18.05,4.4,31.26,20.53,31.43,39.06q.44,46.22,0,92.43c-.24,22.2-18.57,40.13-40.87,40.65-9,.21-18,0-27,.06h-4v4.35c0,14.1,0,28.2,0,42.29-.09,25-18.29,43.14-43.37,43.18q-44.25.08-88.5,0a6.63,6.63,0,0,0-5.68,2.65C146.06,338.38,135.45,350.64,124.63,363.23Zm1.44-205.77c-4.69,6.82-9.14,13.88-14.2,20.47a30.72,30.72,0,0,0-6.69,19.35c0,1.25-.12,2.49-.17,3.74-.56,13.85-4.52,26.43-13.64,37.18a7.46,7.46,0,0,0-1.26,4.43c-.09,12.6-.08,25.19,0,37.79.06,18,12.92,31,30.88,31q65,.07,130.08,0c18,0,31-12.88,31.06-30.83.06-11.23,0-22.45,0-33.67V233.58h-4.76q-53.79,0-107.59,0c-25.52,0-43.63-18.13-43.68-43.59C126.05,179,126.07,168.05,126.07,157.46ZM246.18,71.87q-38.25,0-76.5,0c-18.8,0-31.58,12.73-31.6,31.44q0,43.41,0,86.83c0,18.71,12.8,31.44,31.6,31.44q76.32,0,152.64,0c19,0,31.78-12.68,31.79-31.63q0-43.23,0-86.46c0-19-12.74-31.61-31.79-31.62Q284.25,71.85,246.18,71.87ZM126.07,143c0-13.93-.09-26.77.05-39.61a51.05,51.05,0,0,1,1.18-11.1c4.63-19.39,21.15-32.28,41.47-32.32,36.24-.08,72.47,0,108.71,0h4.62c0-5.92,0-11.39,0-16.85C282,24.82,269.18,12,250.88,12q-64.84,0-129.7,0C103,12,90.09,24.91,90.07,43.16q-.06,41.15,0,82.3c0,1,.11,2.07.18,3.23C103.83,122.23,118.77,125.93,126.07,143Z"/><path d="M185.84,299.45c-4,0-8,.08-12,0a17.94,17.94,0,0,1,.11-35.88q12.18-.18,24.35,0a17.94,17.94,0,0,1-.11,35.88C194.08,299.52,190,299.45,185.84,299.45Zm.27-23.94c-3.87,0-7.75-.08-11.62,0s-6.36,2.52-6.38,5.92,2.49,5.94,6.31,6q11.63.15,23.25,0c3.83,0,6.36-2.53,6.38-5.92s-2.49-5.88-6.31-6S190,275.51,186.11,275.51Z"/><path d="M312,163.2l-3.6,25c-.3,2.1-.52,4.21-.88,6.29a17.9,17.9,0,0,1-17.85,15.12q-43.5.1-87,0c-9.61,0-16.75-6.53-18.11-16.09s-2.77-19.24-4.18-28.85c0-.23-.21-.44,0,0-4.61,1.18-9,3.16-13.48,3.26-7.38.17-12.88-3.89-15.73-10.69s-1.88-13.56,3.28-19.13c3.8-4.11,8-7.84,12.42-12.09-4.45-2.13-5-5.57-4.84-9.53.2-6.48,0-13,.07-19.45,0-4.92,2.18-7.08,7.07-7.14s9.5,0,14.25,0c5.8,0,11.18-.11,16.7-3.45,7.59-4.6,15.82-3.16,23.41,1.58a11.81,11.81,0,0,0,5.78,1.79q16.88.26,33.75,0a10.68,10.68,0,0,0,5.45-1.65,23.93,23.93,0,0,1,27.44.14,9.23,9.23,0,0,0,4.75,1.51c7.37.16,14.75,0,22.12.08,5.14,0,7.26,2.16,7.29,7.31,0,6.61-.09,13.22,0,19.83.08,3.7-.35,7-5,8.76,4.43,4.27,8.49,7.94,12.27,11.89,5.19,5.44,6.68,11.89,4,19-2.64,6.94-8,10.7-15.29,11.49C321,168.67,316.55,166.87,312,163.2Zm-65.84,34.44q20.43,0,40.85,0c6.5,0,8-1.13,8.94-7.38,1.75-11.7,3.43-23.42,4.89-35.16a6.73,6.73,0,0,0-1.69-4.78c-5.39-5.71-10.45-12-16.76-16.51-5.31-3.8-12-7-18.39-7.69-11.87-1.2-24-.36-35.94-.31a8.84,8.84,0,0,0-3.17.74c-4,1.6-8,3.26-11.95,5a9.08,9.08,0,0,0-2.81,1.66c-5.87,5.77-11.74,11.56-17.43,17.51a5.78,5.78,0,0,0-1.38,4.19c1.57,12.1,3.3,24.18,5.09,36.25.74,5,2.6,6.52,7.78,6.53Q225.16,197.67,246.15,197.64Zm49-68.37c7.55,7.53,15.74,15.73,24,23.9,3.61,3.59,7.07,4,9.77,1.15s2.19-6.09-1.21-9.51q-11.5-11.55-23.07-23a23.1,23.1,0,0,0-1.88-1.52l.64,1Zm-106.84-8.61c-2.09,2.2-4.77,5.15-7.57,8-5.71,5.77-11.53,11.42-17.18,17.25a5.87,5.87,0,0,0-.2,8.43,5.69,5.69,0,0,0,8.39.12c8.73-8.55,17.3-17.26,25.2-25.18Zm33.79-12.73a12,12,0,1,0-12,11.83A12,12,0,0,0,222.07,107.93Zm72-.07a12,12,0,1,0-11.94,11.9A12,12,0,0,0,294.08,107.86Zm-60.57,5.78h24.91V102H233.5a55.3,55.3,0,0,1,.53,5.65C234,109.48,233.72,111.34,233.51,113.64Zm-59.28,0c6.21.31,12.41-5.86,12.14-11.56H174.23ZM305.6,101.89c.35,6.43,6.49,12.23,12.2,11.65V101.89Z"/><path d="M168.25,35.68V24.15h35.53V35.68Z"/><path d="M144.21,35.65V24.18h11.67V35.65Z"/><path d="M216.1,186.39c-2-16-4-31.7-6-47.82L222,137c2,16,4,31.73,6,47.84Z"/><path d="M276,186.45l-11.88-1.52c2-16,4-31.78,6-47.83L282,138.63C280,154.66,278,170.33,276,186.45Z"/><path d="M251.84,185.49H240.28V138.05h11.56Z"/></g></g></svg>