<svg xmlns="http://www.w3.org/2000/svg" viewBox="0 0 359.66 359.52"><g id="katman_2" data-name="katman 2"><g id="katman_1-2" data-name="katman 1"><path d="M0,119.89q0-41,0-82C.06,15.36,15.32.1,37.85.09q46,0,92.07,0c22.57,0,37.8,15.23,37.81,37.8q0,82,0,164c0,22.58-15.24,37.82-37.79,37.83q-46,0-92.07,0C15.33,239.66.06,224.39.05,201.87Q0,160.88,0,119.89Z"/><path d="M359.39,239.74q0,40.8,0,81.6c0,23.06-15.13,38.13-38.25,38.14H229.82c-23,0-38.12-15.17-38.12-38.26q0-81.6,0-163.21c0-23,15.17-38.12,38.24-38.13h91.33c23,0,38.11,15.15,38.12,38.26Q359.41,198.94,359.39,239.74Z"/><path d="M275.32,95.92c-15.47,0-30.94,0-46.41,0-21.76,0-37.21-15.48-37.18-37.28,0-9.59-.48-19.3.76-28.75A34.54,34.54,0,0,1,226.37.19q49.22-.37,98.42,0a34.61,34.61,0,0,1,34.13,31.6,162.14,162.14,0,0,1-.37,34.33c-2,17-17,29.32-34.21,29.78l-1.12,0Z"/><path d="M83.89,359.48q-23.2,0-46.41,0C15.45,359.43,0,344.06.07,322c0-9.59-.45-19.29.79-28.75C3,276.67,17.76,263.9,34.5,263.76q49.4-.4,98.8,0c18,.16,33.2,14.77,34.19,32.83.61,10.92.77,22-.55,32.86-2.11,17.28-17,29.73-34.4,30-16.22.21-32.44,0-48.65,0Z"/></g></g></svg>