<svg xmlns="http://www.w3.org/2000/svg" viewBox="0 0 384 357.19"><g id="katman_2" data-name="katman 2"><g id="katman_1-2" data-name="katman 1"><path d="M0,329.92V27.5C4.54,8.39,18.45-.1,39.51,0,142.3.49,245.08.22,347.87.23c2.12,0,4.25,0,6.36.17,13.45,1.31,22.63,8.35,27.69,20.79.83,2,1.39,4.2,2.08,6.31V329.92c-.16.19-.39.35-.45.57-5,18.39-15.87,26.7-35,26.7H35.44c-1.87,0-3.75,0-5.61-.17-13.3-1.29-22.46-8.21-27.62-20.44C1.3,334.43.73,332.14,0,329.92ZM12,92.72V322.6c0,14.46,8,22.6,22.39,22.61q157.64,0,315.28,0c14.22,0,22.33-8.15,22.33-22.29V92.72Zm359.91-12.4c0-16.93.41-33.52-.18-50.08-.3-8.41-5.55-14.35-13.71-16.93a32.47,32.47,0,0,0-9.61-1.07q-109.49-.08-219,0-47.43,0-94.87,0c-14.5,0-22.56,8-22.57,22.41q0,20.76,0,41.54v4.16Z"/><path d="M96.46,205c0,8.85-.12,17.7.11,26.55A8.82,8.82,0,0,0,98.82,237c12.43,12.63,25,25.09,37.56,37.61,4.63,4.63,4.52,7.38-.36,11.87A67.14,67.14,0,1,1,88.6,170.16c5.59-.14,7.81,1.9,7.85,7.49C96.51,186.75,96.46,195.85,96.46,205Zm-12-22.28C62.11,183.79,41.5,202.6,36.37,226c-5.23,23.83,6.82,48.81,28.94,60.23,21.64,11.16,47,5.33,59.61-6.75-1.06-.87-2.19-1.66-3.15-2.62-11.24-11.17-22.39-22.44-33.72-33.51a11.32,11.32,0,0,1-3.66-8.92c.14-12.34,0-24.68,0-37Z"/><path d="M280.22,150.33A20.66,20.66,0,0,1,267.73,146a4.91,4.91,0,0,0-4.1-.49c-7.54,3.32-14.93,6.93-22.42,10.35-1.88.86-2.78,1.78-2.81,4.11A19.21,19.21,0,0,1,223,178.58a19.43,19.43,0,0,1-21.41-10.81,19.29,19.29,0,0,1,29.36-23.37c1.84,1.43,3.18,1.67,5.28.63,7.39-3.63,14.93-6.95,22.29-10.62a4.87,4.87,0,0,0,2.26-3.51c.58-10.67,7.8-18.39,18.28-19.23,9.5-.75,18.08,6,20.28,15.85a4.54,4.54,0,0,0,2.49,3c6.94,2,13.94,3.9,21,5.52,1.12.25,2.93-.65,3.85-1.58,5.56-5.63,12.12-7.94,19.78-5.76,7.45,2.11,12.12,7.17,13.75,14.82A19.23,19.23,0,0,1,345.85,166c-10.27,2.46-20.89-3.57-23.19-13.71-.77-3.44-2.31-4.59-5.44-5.28-5.84-1.3-11.61-2.93-17.35-4.62-2.29-.68-3.75-.47-5.43,1.51A18.22,18.22,0,0,1,280.22,150.33Zm60.9-10.45a7.39,7.39,0,1,0,7.49,7.28A7.54,7.54,0,0,0,341.12,139.88ZM219,152.34a7.26,7.26,0,1,0,7.5,7.12A7.32,7.32,0,0,0,219,152.34Zm53.91-21.19a7.28,7.28,0,1,0,7.13-7.49A7.21,7.21,0,0,0,272.88,131.15Z"/><path d="M260.57,234.69q0-29.37,0-58.74c0-7.92,2.64-10.52,10.57-10.53,6.5,0,13,0,19.49,0,6,.07,9.11,3.05,9.12,9q.08,60.42,0,120.85c0,5.92-3.15,9-9.09,9-6.74.09-13.49.05-20.24,0-6.94,0-9.83-2.86-9.84-9.77Q260.53,264.61,260.57,234.69Zm12.28-57.09V292.05h14.66V177.6Z"/><path d="M321.69,242.84q0-25.64,0-51.26c0-7.22,2.69-9.86,10-9.87,6.62,0,13.24,0,19.87,0,6.25,0,9.18,3,9.18,9.22q0,52,0,104c0,6.35-3,9.3-9.47,9.36q-10.12.07-20.24,0c-6.46-.06-9.34-3-9.35-9.46Q321.67,268.85,321.69,242.84Zm12.23-49v98.22h14.63V193.87Z"/><path d="M238.61,249.07q0,22.82,0,45.65c0,6.72-2.84,9.56-9.57,9.6s-13.5.06-20.25,0c-6.18-.06-9.24-3.09-9.25-9.2q0-46,0-92.07c0-5.86,2.88-8.83,8.68-8.91q10.86-.15,21.74,0c5.83.08,8.62,3,8.64,8.9C238.64,218.38,238.61,233.72,238.61,249.07Zm-12.24,43.09V206.35H211.8v85.81Z"/><path d="M139.44,228.17c-9.61,0-19.22,0-28.83,0-5.41,0-7.53-2-7.54-7.44q-.07-29.16,0-58.31c0-5.07,2.21-7.23,7-7.28,35-.36,66,30.2,66.22,65.35,0,5.6-2,7.66-7.6,7.68C158.92,228.19,149.18,228.17,139.44,228.17Zm-24.07-60.46V216h48.15C162.59,194.57,142.83,170.12,115.37,167.71Z"/><path d="M148.12,234.85c9.63,0,19.25,0,28.87,0,5.37,0,7.61,2.18,7.45,7.48a66,66,0,0,1-18.91,45.13c-3.25,3.4-6.45,3.5-9.75.22q-21.15-21-42.18-42.05c-2-2-3-4.33-1.81-7.1s3.43-3.72,6.34-3.71C128.13,234.88,138.13,234.85,148.12,234.85Zm-15,12.18,27.44,27.55c6-6,11.79-20.47,10.88-27.55Z"/><path d="M273.75,52.29q-33,0-66,0c-1.7,0-3.89.08-5-.87-1.51-1.31-3.18-3.69-3-5.4.23-1.89,2.23-3.89,4-5.17,1.11-.82,3.12-.52,4.73-.52q65.43,0,130.86,0h1.88c4.42.12,7,2.37,7.07,6s-2.59,6-7.05,6Q307.49,52.33,273.75,52.29Z"/><path d="M55.51,65.9A19.59,19.59,0,1,1,75,46.32,19.51,19.51,0,0,1,55.51,65.9Zm-.15-12A7.54,7.54,0,0,0,63,46.29a7.68,7.68,0,0,0-7.69-7.57,7.59,7.59,0,1,0,.07,15.17Z"/><path d="M163.83,65.9a19.59,19.59,0,1,1,19.49-19.54A19.61,19.61,0,0,1,163.83,65.9Zm-.12-12a7.59,7.59,0,0,0-.07-15.17,7.67,7.67,0,0,0-7.6,7.63A7.54,7.54,0,0,0,163.71,53.89Z"/><path d="M129.12,46.55a19.61,19.61,0,1,1-19.2-19.82A19.45,19.45,0,0,1,129.12,46.55ZM109.4,53.89a7.43,7.43,0,0,0,7.7-7.46,7.59,7.59,0,1,0-15.17-.22A7.43,7.43,0,0,0,109.4,53.89Z"/></g></g></svg>