<svg xmlns="http://www.w3.org/2000/svg" viewBox="0 0 512 287.79"><g id="katman_2" data-name="katman 2"><g id="katman_1-2" data-name="katman 1"><path d="M0,19C3.1,9.83,8.47,2.86,18.49.68A32.8,32.8,0,0,1,25.42.06Q256,0,486.6,0C500,0,507.87,6.9,512,19v83c-2.13,7.09-6.61,12.27-12.29,17a31.89,31.89,0,0,0-.34,49.28c5.64,4.68,10.21,9.8,12.63,16.74v84c-2.73,4.26-4.93,9-8.33,12.67-4.68,5-11.26,5.93-18,5.92q-51.24-.09-102.48,0-176.7,0-353.42.17C15.22,287.83,5,283.15,0,269.06v-84c2.4-7,7-12,12.64-16.73C28.06,155.45,27.89,132,12.29,119,6.63,114.29,2.08,109.17,0,102Zm256-4H26c-8,0-11,2.9-11,10.7,0,23.33.05,46.66-.06,70a12.07,12.07,0,0,0,4.7,9.9A65.94,65.94,0,0,1,29.8,115.87a47.23,47.23,0,0,1-8.56,65c-3.17,2.55-6.26,4.94-6.25,9.58,0,24.33,0,48.66,0,73,0,5.58,3.05,8.65,8.53,9.13,2,.17,4,.08,6,.08H431.48q27,0,54,0c8.91,0,11.52-2.71,11.53-11.74,0-22.83-.08-45.66.06-68.49a12.49,12.49,0,0,0-5.13-10.68c-25.43-20.39-25.42-55.26,0-75.8a12.52,12.52,0,0,0,5.1-10.7c-.14-22.5-.06-45-.06-67.5C497,17.38,494.67,15,484.43,15Z"/><path d="M109.72,104.17c-7.3-4.93-14-9-20.07-13.67-7.42-5.71-10.77-13.49-9-22.91s7.53-15.87,16.84-18.51,17.69-.1,23.91,7.25c4.38,5.17,7.78,11.18,11.59,16.83.9,1.33,1.69,2.74,2.67,4.35,4.09-6.27,7.72-12.42,11.91-18.16,7.18-9.83,17.26-13.34,27.52-10.08,16.77,5.32,22,27.07,8.93,39.18-6.28,5.82-13.92,10.16-21.15,15.32a30.23,30.23,0,0,0,3.43.38c8.16,0,16.33-.07,24.5,0,10,.14,16.46,6.35,16.49,16.17q.18,47.49,0,95c0,9.76-6.12,16-16,16.05q-55.5.24-111,0c-10.15,0-16.19-6.63-16.21-16.95q-.06-46.5,0-93c0-10.9,6.47-17.21,17.54-17.27C90.7,104.13,99.76,104.17,109.72,104.17Zm82.34,15.28H79.42v24.78H109.7c13.5,0,27-.06,40.49,0,6,0,9.35,3.28,8.92,8.29-.37,4.33-3.34,6.65-8.88,6.66q-32.74.06-65.48,0H79.49V216H192v-56.5c-6-1.12-15.23,2.32-15.32-7.55-.08-10.06,9.27-6.94,15.39-8.07ZM143.51,94.3,145.12,96c9.08-5.65,18.36-11,27.16-17.06,5-3.46,5.25-9.69,1.38-13.39s-9.5-3.47-13,1.57C154.57,75.91,149.19,85.21,143.51,94.3ZM126,95.75,127.76,94c-5.36-8.72-10.61-17.51-16.15-26.12-2.17-3.38-5.6-6-9.68-4.35a12.87,12.87,0,0,0-6.3,6.24c-1.76,4.09.86,7.53,4.23,9.71C108.47,85.08,117.27,90.35,126,95.75Z"/><path d="M440.93,70.82c-1.6,2.94-2.38,5-3.66,6.63q-55.14,71.09-110.41,142.07c-3.27,4.21-7.83,5-11.31,2.3s-3.77-7.24-.47-11.5Q370.27,139.26,425.5,68.25c2.3-3,5.21-5.36,8.92-3.54C436.92,65.93,438.69,68.64,440.93,70.82Z"/><path d="M416.48,223.36a31.52,31.52,0,1,1-.07-63,31.52,31.52,0,0,1,.07,63Zm-16.6-31.29a16.25,16.25,0,0,0,16.61,16.28,16.51,16.51,0,0,0,16.41-16.61,16.82,16.82,0,0,0-16.74-16.41A16.52,16.52,0,0,0,399.88,192.07Z"/><path d="M304.73,95.93a31.53,31.53,0,0,1,31.09-31.79,31.51,31.51,0,1,1,.44,63A31.27,31.27,0,0,1,304.73,95.93Zm31.39,16.23a16.55,16.55,0,0,0,16.63-16.41A16.83,16.83,0,0,0,336.2,79.14a16.49,16.49,0,0,0-16.47,16.52A16.24,16.24,0,0,0,336.12,112.16Z"/><path d="M263.5,240.39c0,2.15.07,4.32,0,6.47-.24,5.55-3,8.6-7.61,8.53s-7.2-3.16-7.34-8.78c-.11-4.31-.1-8.63,0-13,.12-5.86,2.93-9.13,7.6-9s7.23,3.34,7.37,9.3C263.54,236.07,263.5,238.23,263.5,240.39Z"/><path d="M248.58,47.29c0-2.66-.19-5.34,0-8,.38-4.34,3.54-7.38,7.44-7.15,4.19.24,7,2.57,7.21,6.81a155.92,155.92,0,0,1,0,17.43C263,60.62,260.18,63,255.92,63s-6.82-2.52-7.23-6.74c-.29-3-.05-6-.05-9Z"/><path d="M263.26,96a70.26,70.26,0,0,1-.08,9c-.52,4-3.19,6.14-7.22,6.13s-6.88-2.21-7.13-6.19a143.16,143.16,0,0,1,0-18.41c.26-4,3.28-6.21,7.19-6.18s6.7,2.23,7.17,6.25a80.46,80.46,0,0,1,.07,9.45Z"/><path d="M263.39,143.69c0,2.83.21,5.67-.05,8.47-.41,4.53-3.3,7.15-7.48,7s-6.92-2.58-7.16-6.78a164.64,164.64,0,0,1,0-16.92,7.31,7.31,0,0,1,7.46-7.16c3.89.08,6.91,3,7.26,7.43.21,2.64,0,5.31,0,8Z"/><path d="M248.69,191.94a80.94,80.94,0,0,1,.05-8.95c.47-4.28,3.33-6.55,7.47-6.46,3.91.08,6.79,2.34,7,6.39a155.09,155.09,0,0,1,0,17.91c-.26,4.24-3.16,6.5-7.44,6.41-4.05-.09-6.58-2.35-7-6.35A80.9,80.9,0,0,1,248.69,191.94Z"/></g></g></svg>