<svg xmlns="http://www.w3.org/2000/svg" viewBox="0 0 416.21 275.73"><g id="katman_2" data-name="katman 2"><g id="katman_1-2" data-name="katman 1"><path d="M416.21,202.9c-.81,7.5-1.2,15.09-2.55,22.5-1.71,9.41-3.25,19-6.57,27.92-6,16.18-19.23,23.94-36.11,21.89-4.89-.6-9.88-2.91-14.17-5.51C341.63,260.49,329.15,248,317,235.29c-7.4-7.72-14.43-15.79-21.56-23.76-6-6.74-13.46-10.26-22.52-10.26H143.66a29.34,29.34,0,0,0-23.16,10.67c-15.56,17.91-31.53,35.41-50.19,50.2-3.81,3-7.93,5.66-12,8.37-15,10.06-38.56,5.72-48.13-14.22C5.74,247,4,237,2.66,227-3,183.91.25,141.59,13.71,100.21c7.15-22,16.87-42.8,30.4-61.62,26.78-37.28,65-48.06,107.31-30.11a161.82,161.82,0,0,1,22.76,12.39c8,5.07,16.46,8,26,7.94,5,0,10-.1,15,0,10.24.21,19.33-2.87,27.78-8.64C258.62,9.48,275.81,2.45,294.79.53,324-2.41,347.5,8.79,366,30.85c18.19,21.71,29.55,47.09,38,73.88a265.91,265.91,0,0,1,11.55,63.74,43.26,43.26,0,0,0,.7,4.35ZM130.74,93.3c0-8.69-.08-16.8,0-24.91,0-2.25-.67-3.4-2.83-4.14a37.6,37.6,0,0,0-22.36-.93c-2.88.76-4.1,2.11-4,5.34.27,8.07.09,16.16.09,24.64-8.54,0-16.63.16-24.71-.07-3.14-.09-4.55,1.07-5.59,3.88a30.16,30.16,0,0,0-.14,20.65c1.14,3.44,3,4.95,6.8,4.69,5.39-.36,10.83-.09,16.25-.09h6.44c0,8.42.12,16.13-.07,23.84a5.27,5.27,0,0,0,3.22,5.45c6.86,3.49,13.8,3.13,20.87.71,3.48-1.19,5.16-3,4.94-7.09-.39-7.52-.11-15.08-.11-22.91,8.93,0,17.31.07,25.69-.07,1.23,0,3.07-.72,3.57-1.66,4.16-7.82,5.27-15.79.71-24-1.34-2.4-2.77-3.5-5.66-3.41C146.36,93.45,138.79,93.3,130.74,93.3Zm236.87,8.9a22.48,22.48,0,1,0-22.29,22.65A22.42,22.42,0,0,0,367.61,102.2ZM311.43,68.94A22.48,22.48,0,1,0,289,91.51,22.45,22.45,0,0,0,311.43,68.94Zm0,62a22.48,22.48,0,1,0-22.33,22.54A22.38,22.38,0,0,0,311.43,131Z"/></g></g></svg>