<svg xmlns="http://www.w3.org/2000/svg" viewBox="0 0 376.99 375.19"><g id="katman_2" data-name="katman 2"><g id="katman_1-2" data-name="katman 1"><path d="M.06,256c0-32.55.15-65.11-.06-97.66-.11-17.72,6.79-31.28,21.32-41.66Q99.62,60.75,177.57,4.31c8-5.73,14-5.76,22,0q78.87,56.76,157.72,113.55C370.5,127.38,377,140.29,377,156.51q0,100.29,0,200.56c0,10.61-7.14,18-17.76,18.06q-60.36.12-120.72,0c-10.19,0-16.69-6.82-16.71-17.1,0-24.57.06-49.14,0-73.71-.07-18.13-11.77-32.16-28.79-34.83-21.28-3.33-39.82,12.06-40,33.58-.21,24.44-.05,48.89-.06,73.34,0,12.64-6.15,18.76-18.87,18.76H18.93C6.28,375.16.07,369,.06,356.3ZM344.9,343.84v-4.7q0-90.57.09-181.13c0-6.65-2.31-11.33-7.65-15.18Q264,89.93,190.77,36.82c-1.94-1.4-3.18-1.52-5.19-.08q-73.7,53.07-147.51,106a15.17,15.17,0,0,0-6.78,13.33q.13,91.5.06,183V343h91.2V338.4c0-19.21-.44-38.44.2-57.63,1.17-35,29.55-62.27,64.6-62.9,34.55-.62,64.6,26.89,66,61.35.83,20,.26,40.16.32,60.25,0,1.42,0,2.85,0,4.37Z"/></g></g></svg>