<svg xmlns="http://www.w3.org/2000/svg" viewBox="0 0 366.32 384"><g id="katman_2" data-name="katman 2"><g id="katman_1-2" data-name="katman 1"><path d="M203.51,0c7.26,1,14.59,1.63,21.77,3.05q95.28,18.87,139,105.81a18.67,18.67,0,1,1-33.48,16.52c-9.81-19.72-22.61-37.1-39.54-51.2-32.47-27-69.83-39.37-112-36A154.27,154.27,0,0,0,40.47,160.72C23.94,241.35,73.6,321.09,153.13,341.64c69.62,18,142.75-15,175.55-79.16.74-1.44,1.43-2.91,2.21-4.33,5.07-9.22,15.91-12.7,25.05-8.06s12.9,15.69,8.24,25.34a186.11,186.11,0,0,1-29.94,44.63q-47.22,52-116.7,62.18c-4.67.68-9.36,1.18-14,1.76h-24a26.28,26.28,0,0,0-3.25-.64A184.39,184.39,0,0,1,112.56,367c-81.71-37.52-125.85-123.6-109-212.42C18.11,77.86,81.57,15.58,158.12,3c7.12-1.17,14.29-2,21.43-2.95Z"/><path d="M228.13,210.84h-4q-50.32,0-100.66,0c-9.47,0-16.7-5.49-18.85-14-3.06-12.21,5.77-23.38,18.79-23.42,26.19-.1,52.39,0,78.58,0h26.77c-1.32-1.45-2.09-2.37-2.94-3.22-7.84-7.87-15.71-15.71-23.54-23.6-8.16-8.23-8.45-19.71-.73-27.38,7.54-7.5,19-7.26,27.08.75,15.49,15.42,31,30.78,46.27,46.43,14.52,14.91,14.53,36.64,0,51.5-15.44,15.82-31.15,31.37-46.83,46.94a18.4,18.4,0,0,1-21.36,3.87,18.62,18.62,0,0,1-4.83-30.45c8.86-8.78,17.66-17.62,26.48-26.43Z"/></g></g></svg>