<svg xmlns="http://www.w3.org/2000/svg" viewBox="0 0 344.08 303.88"><g id="katman_2" data-name="katman 2"><g id="katman_1-2" data-name="katman 1"><path d="M24.17,24.23V240h4.15q19.14,0,38.27,0c8.51,0,13.25,4.7,13.32,13.17,0,6.22,0,12.45,0,19.3,1.78-.81,3.1-1.37,4.38-2,18.88-9.43,37.71-18.95,56.66-28.23a22.11,22.11,0,0,1,8.93-2.14c11-.25,22-.12,33-.09,7.66,0,13.08,5,13.12,11.91s-5.36,12-13,12.08c-8.87,0-17.76.15-26.63-.06a21.81,21.81,0,0,0-10.71,2.57q-35.1,17.7-70.34,35.2c-10.89,5.43-19.44.2-19.48-11.91,0-8.47,0-16.94,0-25.79h-4.4c-12.76,0-25.52,0-38.27,0C4.94,264,0,259.3,0,251.14Q0,132.06,0,13C0,4.72,4.84,0,13.14,0H330.93c8.28,0,13.11,4.74,13.12,13q.06,42.95,0,85.88c0,7.83-4.82,13-11.87,13.05s-12.09-5.31-12.11-13.3q-.06-34.87,0-69.76V24.23Z"/><path d="M258.49,227l23-28.07q20.4-24.94,40.81-49.88c3.89-4.73,9.28-6.23,14.37-4.14a11.55,11.55,0,0,1,7.19,12.66,13,13,0,0,1-2.58,6.07q-35.83,44-71.88,87.89a11.7,11.7,0,0,1-17.06,1.6q-24-19.78-47.81-39.81a11.89,11.89,0,0,1-1.62-17.06,11.76,11.76,0,0,1,16.78-1.42c11.43,9.31,22.7,18.81,34,28.23C255.16,224.29,256.6,225.47,258.49,227Z"/><path d="M124,136c-15.88,0-31.76.09-47.64,0-9.44-.07-15.19-9.11-11.11-17.21,2.55-5.06,7-6.77,12.39-6.76q38.07,0,76.15,0c5.75,0,11.5-.06,17.25,0,7.66.11,13,5.17,13,12.12s-5.38,11.83-13.12,11.85C155.28,136,139.65,136,124,136Z"/><path d="M99.88,88c-7.62,0-15.25,0-22.88,0s-13-5-13-12S69.33,64,77,64q23.07-.11,46.13,0c6.21,0,10.55,3.18,12.27,8.56a11.15,11.15,0,0,1-4.58,13.13,16.61,16.61,0,0,1-7.72,2.19C115.39,88.13,107.63,88,99.88,88Z"/></g></g></svg>