<svg xmlns="http://www.w3.org/2000/svg" viewBox="0 0 384 342.37"><g id="katman_2" data-name="katman 2"><g id="katman_1-2" data-name="katman 1"><path d="M384,96.85c-3,12.47-6,24.92-8.92,37.4-6.3,27.06-12.5,54.13-18.8,81.19-3.29,14.15-13.91,22.71-28.53,22.73q-69.75.09-139.48,0c-25.25,0-50.49-.08-75.74,0-9.68,0-15.39,6.56-13.63,15.31a11.74,11.74,0,0,0,10.55,9.63,50.1,50.1,0,0,0,5.62.17H333.28c1.13,0,2.25,0,3.38,0,5.57.25,9.83,3.46,11.16,8.37s-.71,9.68-5.53,12.75c-.41.27-.84.5-1.53.9,4.64,10.51,5.28,21.2,1,31.93a38.37,38.37,0,0,1-14.64,18,39.48,39.48,0,0,1-44.41-.42c-15.22-10.75-19.41-25.56-13.64-48.85h-70c7,19.85,3.31,37-14.33,49.18-13.81,9.56-29,9.61-43,.31-18-12-21.76-29.27-14.81-49.77-5.4,0-10.47.07-15.54,0-18.26-.3-32.35-12.38-35.14-30.08-3-19.09,11.1-37.53,30.4-39.71.85-.1,1.7-.23,2.82-.38-.31-1.46-.53-2.78-.88-4.07Q83.89,119.8,59.14,28.18c-1.33-4.94-2.2-5.62-7.26-5.63-12.5,0-25-.17-37.49.06C7.48,22.74,2.52,20.39,0,13.75V8.51C2.31,3.36,5.82,0,11.92,0c14,.07,28-.13,42,.08,13.31.21,22.9,7.81,26.47,20.71q6.23,22.5,12.16,45.09c.69,2.63,1.71,3.56,4.52,3.56q76.66.2,153.34.58,54.93.24,109.85.53c11.86.06,19.87,6.19,23.11,17.48a7.55,7.55,0,0,0,.64,1.31Zm-270.6,46h43.31a29.17,29.17,0,0,0,0-3.52c-2-14.94-4-29.86-5.91-44.8-.34-2.75-2.07-2.33-3.74-2.34q-17.4-.1-34.82-.16c-4,0-8.1,0-12.55,0C104.35,109.33,108.87,126.09,113.4,142.85Zm132.16-.09a10.12,10.12,0,0,0,1.61.28c12.85,0,25.7,0,38.56.08,2.49,0,2.77-1.31,3-3.23,1.41-11,2.91-22,4.35-32.94.61-4.63,1.14-9.27,1.73-14.16H245.56Zm-65.67.08H222.6V92.51H173.15C175.42,109.43,177.65,126.14,179.89,142.84Zm131.17,0H350c3.83-16.59,7.64-33,11.57-50-14.29,0-28.14,0-42,.11-.78,0-2.07,1.56-2.22,2.53-1.12,7.13-2,14.3-3,21.47C313.27,125.48,312.2,134,311.06,142.88ZM119.72,165.55c.34,1.55.51,2.52.77,3.46,3.06,11.41,6.17,22.81,9.22,34.22,3.34,12.51,2.16,12.69,16.17,12.53,6.83-.08,13.66,0,20.65,0a20.82,20.82,0,0,0,0-2.29c-2-15.3-4-30.6-6.13-45.88a2.94,2.94,0,0,0-2-1.94C145.68,165.52,133,165.55,119.72,165.55Zm125.84.16v50c10.67,0,21.12,0,31.57-.12.64,0,1.68-1.58,1.82-2.52,1.57-11,3-22,4.46-32.94.62-4.74,1.16-9.49,1.76-14.43Zm-23,49.83V165.76H182.92l6.65,49.78Zm78.83.2c8.88,0,17.35,0,25.81,0,4.56,0,6.22-1.44,7.26-5.9q4.74-20.36,9.43-40.72c.23-1,.3-2.12.49-3.56-11.8,0-23.26-.06-34.72.14-.73,0-1.9,2-2.08,3.13-1.33,9-2.48,18-3.66,27C303.11,202.33,302.31,208.84,301.43,215.74ZM162.85,319.36a16.85,16.85,0,0,0,17.06-16.71A17.09,17.09,0,0,0,163,285.71a16.89,16.89,0,0,0-16.78,16.64A16.64,16.64,0,0,0,162.85,319.36Zm142.41,0a16.73,16.73,0,0,0,16.84-16.87,16.84,16.84,0,0,0-33.68,0A16.7,16.7,0,0,0,305.26,319.36Z"/></g></g></svg>