<svg xmlns="http://www.w3.org/2000/svg" viewBox="0 0 384 297.61"><g id="katman_2" data-name="katman 2"><g id="katman_1-2" data-name="katman 1"><path d="M0,233.1c1.49-8.22,3.06-16.42,4.44-24.65q6.24-37.12,12.32-74.27a34.79,34.79,0,0,0,.44-5.58q0-51.75,0-103.51C17.23,9.56,26.69,0,42.14,0H255.87c15.33,0,24.9,9.42,24.92,24.69q.07,67.13,0,134.26c0,15-9.63,24.56-24.68,24.56q-86.05,0-172.11.1a13.48,13.48,0,0,0-6.9,2C52.45,201.32,27.9,217.17,3.3,233A31.67,31.67,0,0,1,0,234.6ZM151.76,80.21q-28.66,0-57.31,0a16.4,16.4,0,0,0-4.43.46c-2.75.78-4,2.82-3.91,5.65a5.06,5.06,0,0,0,4.14,5.1,17.32,17.32,0,0,0,4.08.37q57.48,0,115,0a20.06,20.06,0,0,0,3.72-.25,5.65,5.65,0,0,0,.12-11.08,19.23,19.23,0,0,0-4.09-.27Zm.31-40H94.7a24.66,24.66,0,0,0-3.75.1,5.2,5.2,0,0,0-4.83,5.29c-.15,3.23,1.57,5.18,4.64,5.86a15.11,15.11,0,0,0,3.37.12H209.62a16.41,16.41,0,0,0,3.37-.11c3.07-.68,4.79-2.64,4.65-5.86-.13-3-1.86-4.83-4.83-5.3a24.5,24.5,0,0,0-3.74-.1Zm-.32,80.26H94.39a23.6,23.6,0,0,0-3.37.08c-3,.44-4.72,2.21-4.9,5.24-.19,3.22,1.52,5.19,4.57,5.92a15,15,0,0,0,3.36.13h115.1a17.64,17.64,0,0,0,3-.08c3.14-.53,4.95-2.51,4.93-5.64s-1.77-5.14-5-5.58a25.18,25.18,0,0,0-3.37-.07Z"/><path d="M384,297.61c-3.94-2.36-7.94-4.63-11.81-7.1-21.76-13.94-43.46-28-65.27-41.84a13.55,13.55,0,0,0-6.9-2q-86-.16-172.06-.09c-12.13,0-21-6.37-23.95-17.06a10,10,0,0,1-.52-2.55c0-10.49,0-21,0-32.06h4.67q74.42,0,148.82,0c17.12,0,30.7-10.54,34.38-26.68a47.63,47.63,0,0,0,1-10.4q.1-44.81,0-89.61V63.3c1.41-.09,2.6-.22,3.78-.22,15.37,0,30.74,0,46.11,0,15,0,24.52,9.65,24.52,24.7,0,34.24-.26,68.49.19,102.72.12,9.28,2.21,18.55,3.72,27.78,4.1,25.13,8.36,50.23,12.58,75.34a22.17,22.17,0,0,0,.74,2.49Z"/></g></g></svg>