<svg xmlns="http://www.w3.org/2000/svg" viewBox="0 0 408.81 408.8"><g id="katman_2" data-name="katman 2"><g id="katman_1-2" data-name="katman 1"><path d="M0,241.13c1.51-3.22,2.6-6.73,4.62-9.6,4.82-6.85,11.91-9.41,20.09-9.41q22.95,0,45.91,0c7.28,0,14,1.44,19.33,6.88a3.07,3.07,0,0,0,2.69.75c12-6.58,25.12-11.69,33.38-23.27A98.68,98.68,0,0,0,137.2,186c5.87-14.67,10.88-29.68,16.27-44.54,2.78-7.69,5.95-9.33,13.68-6.9a137.68,137.68,0,0,1,15,5.21,42,42,0,0,1,21.54,21.5c1.2,2.64,2.67,3.32,5.39,3.3,13.3-.13,26.71,1,39.89-.32,15.71-1.54,27.89,2.66,37.33,15.5,3.58,4.87,8.39,8.83,13.27,13.84,4.4-4.6,8.38-8.83,12.44-13s8.14-8,12.1-12.16a12.31,12.31,0,0,1,9.59-4c16.23.1,32.46.05,48.7,0,7.58,0,10.38-2.8,10.39-10.38q0-63.87,0-127.74c0-7.58-2.8-10.38-10.38-10.38h-313c-7.58,0-10.39,2.79-10.39,10.36q0,63.89,0,127.75c0,7.58,2.8,10.35,10.37,10.39,3.73,0,7.46-.09,11.18,0,5.18.16,8.73,3.47,8.72,8s-3.55,7.81-8.73,7.95c-4.13.12-8.25.07-12.38,0-14.93-.17-25-10.2-25.11-25.15-.09-22.89,0-45.77,0-68.66q0-30.13,0-60.28C43.14,9.91,53,0,69.46,0h313c16.46,0,26.37,9.88,26.38,26.3q0,63.87,0,127.74c0,16.47-9.88,26.37-26.29,26.4-14.77,0-29.54-.09-44.31.11a9.38,9.38,0,0,0-5.8,2.42c-8.34,8-16.44,16.29-24.63,24.47-6.53,6.53-9.95,6.56-16.38.14-8.28-8.28-16.51-16.61-24.89-24.79a7.79,7.79,0,0,0-4.69-2.25c-17.17-.16-34.33-.1-51.5-.09-.51,0-1,.11-.45,0l-12.29,41.61h4.18c19,0,38.06,0,57.09,0,12.93,0,23,5.18,28.69,17.15,4.2,8.81,3.6,17.75-.77,26.43,27.07,10,27.4,45.31,1.41,56.34,4.24,8.13,5.23,16.58,1.85,25.28s-9.57,14.16-18.39,17.47c3.63,6.95,4.9,14.05,3,21.4-3,11.54-10.49,18.79-22,21.82-.89.23-1.77.52-2.65.77H130.15a144.63,144.63,0,0,1-35.85-9.59,2.88,2.88,0,0,0-2.6.77c-3.83,5-9.18,7.34-15,8.82H19.16c-2.09-.79-4.25-1.45-6.28-2.4C5.7,403.07,2.13,396.89,0,389.64ZM166.87,151.5c-5.08,14-10.11,27.67-15,41.42-5.64,15.76-15.06,28.73-29,38-7.28,4.85-15.11,8.89-22.85,13-2.6,1.39-3.44,2.94-3.44,5.85q.15,64.47.07,128.94a5,5,0,0,0,0,2c.5,1,1,2.45,2,2.85,13.15,5.74,26.76,9.42,41.28,9.31,19.43-.15,38.86,0,58.28,0q23,0,45.91,0a21.71,21.71,0,0,0,5.52-.57,13.12,13.12,0,0,0,9.81-14.11,12.8,12.8,0,0,0-12.08-11.73c-9.3-.35-18.63-.11-27.94-.25-6-.09-9.46-3.07-9.49-7.94s3.4-7.83,9.39-8c2.13-.06,4.26,0,6.39,0,11.57,0,23.16.19,34.72-.13a22.33,22.33,0,0,0,10.15-2.69c4.81-2.77,6.51-9,4.91-14.41-1.7-5.72-6.71-9.45-13.29-9.5-13.7-.1-27.41,0-41.11,0a33.18,33.18,0,0,1-4-.11,7.73,7.73,0,0,1-7.14-7.32,7.41,7.41,0,0,1,6.15-8.08,20.82,20.82,0,0,1,4.74-.44q28.14,0,56.28,0c4.37,0,8.17-1.21,11-4.56,3.6-4.23,4.44-9.08,2.15-14.15s-6.61-7.85-12.36-7.86c-18.89,0-37.79,0-56.68-.05a23.93,23.93,0,0,1-5.92-.63,7.8,7.8,0,0,1,.55-15,19.3,19.3,0,0,1,4.76-.31c12.51,0,25,0,37.52,0a28.06,28.06,0,0,0,5.94-.53,13,13,0,0,0,10-15c-1.22-7.15-6.64-11.25-15.1-11.26-23.55,0-47.1,0-70.66,0-9,0-12.09-4.36-9.25-12.8,3.76-11.21,7.69-22.36,11.32-33.61C196.51,172.84,186,154.74,166.87,151.5ZM40.32,238.1c-5.76,0-10.79-.07-15.83,0-6,.11-8.5,2.64-8.51,8.58q0,68.87,0,137.73c0,5.8,2.53,8.38,8.24,8.39q24.15.09,48.3,0c5.49,0,8.09-2.62,8.09-8.13q.06-69.26,0-138.52c0-5.26-2.53-7.85-7.8-8-4-.13-8,.23-12-.11-3.75-.32-4.66,1-4.64,4.66.13,29.94.08,59.88.06,89.82a31.25,31.25,0,0,1-.38,5.56A7.74,7.74,0,0,1,40.7,338a32.28,32.28,0,0,1-.37-5.56q0-44.31,0-88.63Z"/><path d="M329.9,47c5.32,0,9.14,2.52,11.6,7.09,1.83,3.39,3.27,7,5.25,10.29A6.59,6.59,0,0,0,350.59,67c3.48.81,7.09,1.11,10.63,1.67,5.28.84,9.11,3.56,10.88,8.74s.3,9.44-3.26,13.19c-2.47,2.61-5,5.19-7.7,7.54a5.32,5.32,0,0,0-1.84,5.6,105.75,105.75,0,0,1,1.85,11.81c.76,9.89-8.44,16.52-17.61,12.71a77.25,77.25,0,0,1-10.26-5.31,5.65,5.65,0,0,0-6.53.09c-3.08,1.83-6.3,3.43-9.52,5a12.18,12.18,0,0,1-13.52-1.39c-4-3.08-6.12-7.59-4.56-12.35,3.25-10,1-17.39-7.57-23.59-4.29-3.11-5.28-8.2-3.51-13.38s5.68-7.84,10.95-8.66c2.89-.45,5.79-1.24,8.68-1.22,3.89,0,5.57-2,6.92-5.25a75,75,0,0,1,4.92-9.56C321.84,48.82,325.46,47.05,329.9,47Zm.77,20.39c-3.1,4.44-5.22,9.52-9,12.33s-9.12,3.12-14.59,4.79c10.25,6.19,12.37,15,9,26.14,9.59-7.47,18.68-6.78,28.17-.06-4-11.27-1-19.88,8.67-26.85C340.82,83.94,333.51,78.34,330.67,67.34Z"/><path d="M95.79,115a110.79,110.79,0,0,1,1.86-11c.74-2.82-.15-4.47-2.12-6.18-2.4-2.09-4.62-4.4-6.89-6.64-3.93-3.87-5.53-8.52-3.77-13.8s5.84-8.62,11.31-8.61c9.83,0,15.84-4.1,18.86-13.6,1.69-5.3,6.11-8.23,12-8.2,5.72,0,10.07,2.93,11.7,8,3.07,9.65,9.25,13.72,19.17,13.76,5.31,0,9.26,3.33,11,8.45s.46,9.7-3.32,13.54A40.87,40.87,0,0,1,160.12,96c-4.11,2.86-4.76,6.45-3.46,11a39.25,39.25,0,0,1,1.39,8.63c.5,10.16-8.71,16.5-18.07,12.43a95.56,95.56,0,0,1-9.9-5.12c-2.16-1.26-3.92-1.48-6.18-.08a77.59,77.59,0,0,1-10.23,5.33C104.71,132.05,95.63,125.87,95.79,115Zm31.07-47.73c-3.39,11.61-11.06,16.5-22.81,16.58,10.12,6.83,12.23,15.7,8.88,26.91,9.49-7.61,18.59-6.91,28.22-.19-4.07-11.28-1-19.85,8.59-26.85C137.85,83.91,130.46,78.6,126.86,67.22Z"/><path d="M197.3,115.09c.52-3.12,1-7.23,1.95-11.22a5.3,5.3,0,0,0-2-5.89c-2.6-2.27-5-4.76-7.44-7.22-3.79-3.84-5-8.43-3.31-13.53s5.71-7.8,11-8.58a12.15,12.15,0,0,1,2.37-.32c8.76.61,13.32-4.06,16-11.9C217.79,51,221.64,47.19,228,47c5.49-.18,9.39,2.4,12,7.07,2.3,4.16,3.53,9.69,7,12.21s8.93,1.63,13.48,2.54c10.49,2.1,14.25,13.37,7.15,21.45a94.77,94.77,0,0,1-7.94,7.84,5.1,5.1,0,0,0-1.9,5.52,73.54,73.54,0,0,1,1.83,12.58c.38,9.53-8.59,15.73-17.42,12.13a66.15,66.15,0,0,1-9.9-5.1c-2.71-1.68-4.93-1.55-7.6.1a65.17,65.17,0,0,1-9.9,5.09C206,131.91,197,125.44,197.3,115.09Zm54-30.64c-5.57-1.75-10.89-2.23-14.57-4.94s-5.68-7.64-8.82-12.19c-2.89,11.2-10.33,16.57-22.32,16.47,10.1,6.77,12.25,15.64,9,26.78,9.58-7.39,18.68-6.79,28.12,0C238.88,99.45,241.39,90.72,251.28,84.45Z"/><path d="M123.18,172.8a7.81,7.81,0,1,1-7.48-8.24A8,8,0,0,1,123.18,172.8Z"/><path d="M56.14,365.09a7.83,7.83,0,0,1-15.65.48,7.83,7.83,0,1,1,15.65-.48Z"/></g></g></svg>