<svg xmlns="http://www.w3.org/2000/svg" viewBox="0 0 408.84 408.92"><g id="katman_2" data-name="katman 2"><g id="katman_1-2" data-name="katman 1"><path d="M230.78,408.92h-52.7c-5.8-2.07-8.68-6.33-10-12.22-3.11-13.46-6.65-26.83-9.79-40.28-.63-2.72-2-3.92-4.44-4.87q-9.65-3.74-19.07-8c-2.4-1.1-4.21-1.17-6.55.28-9.71,6-19.56,11.83-29.37,17.7-7.76,4.63-12.57,4.07-18.89-2.24q-15.12-15.09-30.2-30.21c-6.18-6.19-6.81-11.09-2.37-18.54,6-10,12-20.09,18.1-30.07a5.09,5.09,0,0,0,.3-5.44q-4.52-10-8.47-20.19a5.92,5.92,0,0,0-4.68-4.12C38.79,247.41,25,244,11.21,240.51c-8-2-11.17-6-11.19-14.13q0-21.75,0-43.51c0-8.46,3.09-12.42,11.27-14.46,13.79-3.44,27.58-6.89,41.4-10.22a5.47,5.47,0,0,0,4.44-3.83q3.23-8.79,7.07-17.33a5.21,5.21,0,0,0-.32-5.47C57,120.2,50.16,108.79,43.35,97.37c-4.44-7.45-3.84-12.46,2.26-18.58q15.06-15.14,30.2-30.21c6.4-6.39,11.06-6.95,18.84-2.3,10.95,6.56,21.84,13.21,32.88,19.6a7,7,0,0,0,5.36.25c7.17-2.79,14.15-6,21.31-8.88a5.91,5.91,0,0,0,4-4.74c3.28-13.83,6.74-27.62,10.18-41.41,1.94-7.79,6-11,13.82-11.07Q204.4,0,226.55,0c7.88,0,12,3.27,13.89,11,3.47,13.92,6.94,27.84,10.26,41.8a5.55,5.55,0,0,0,3.92,4.38c6.43,2.49,12.82,5.13,19.09,8,2.43,1.11,4.23,1.17,6.58-.29C290.47,58.62,300.77,52.54,311,46.4c8.07-4.82,12.58-4.28,19.16,2.28q15,15,29.92,29.93c6.43,6.44,7,11.1,2.41,18.83-6.27,10.5-12.66,20.93-18.78,31.52a7.09,7.09,0,0,0-.29,5.36c2.54,6.7,5.59,13.2,8.16,19.89a5.88,5.88,0,0,0,4.74,4c13.44,3.19,26.81,6.7,40.26,9.82,5.9,1.36,10.16,4.25,12.22,10v52.71c-2.06,5.8-6.32,8.69-12.21,10.05-13.46,3.12-26.82,6.62-40.26,9.82a5.87,5.87,0,0,0-4.74,4c-2.46,6.44-5.14,12.81-8,19.09a5.47,5.47,0,0,0,.38,5.83c6.32,10.3,12.51,20.7,18.69,31.09,4.37,7.34,3.78,12.1-2.29,18.2Q345.23,344.22,330,359.42c-6.1,6.09-11.11,6.68-18.58,2.21-10.16-6.06-20.33-12.1-30.4-18.3a5.39,5.39,0,0,0-5.81-.34q-10.12,4.63-20.51,8.7a5.9,5.9,0,0,0-4,4.75c-3.18,13.44-6.69,26.8-9.8,40.26C239.46,402.6,236.57,406.85,230.78,408.92ZM204.35,120.63c-46.12.07-83.82,37.85-83.75,83.92s37.85,83.83,83.91,83.76,83.82-37.85,83.75-83.92S250.41,120.55,204.35,120.63Z"/></g></g></svg>