<svg xmlns="http://www.w3.org/2000/svg" viewBox="0 0 408.83 346.7"><g id="katman_2" data-name="katman 2"><g id="katman_1-2" data-name="katman 1"><path d="M408.83,315.44c-1.7,6.84-3.83,13.44-8.69,18.89-5.62,6.29-12.42,11.24-20.73,11.51-19.23.65-38.49.21-56.82.21.22-11.79.61-23.83.65-35.87.09-29.53,0-59.05,0-88.58,0-10.95-.76-21.77-4.38-32.23a13.58,13.58,0,0,1-.26-2.43c17,1,34.1-2.44,50.41,3.57,22,8.12,35.12,24,39.09,47.26a10.93,10.93,0,0,0,.69,1.82Z"/><path d="M204.43,346.65q-40.5,0-81,0c-9.8,0-14.07-4.28-14.07-14.08,0-38.71-.08-77.42,0-116.12.08-29,18.26-52,46.31-58.56a58.82,58.82,0,0,1,13-1.37c23.81-.13,47.62-.2,71.43,0,28.55.2,51.44,18.45,57.87,46.13a64.45,64.45,0,0,1,1.44,14.22q.17,58.07.05,116.12c0,9.26-4.4,13.67-13.67,13.67Q245.13,346.67,204.43,346.65Z"/><path d="M204.54,0c38.87.07,70.81,31.84,70.88,70.5a71.46,71.46,0,0,1-70.9,71.38c-38.93.22-71.39-32.49-71.06-71.61A71.11,71.11,0,0,1,204.54,0Z"/><path d="M86.57,346.65c-12.78,0-26.07.13-39.35,0-6.89-.1-14,.28-20.61-1.35C10.05,341.16.13,327.44.05,309.93,0,289.31,0,268.69,0,248.07c0-34.61,24.8-60.07,59.38-60.95,10.19-.26,20.4,0,31.11,0-.91,3.19-2,5.79-2.35,8.49-1,7.49-2.41,15-2.47,22.53-.26,34.86-.17,69.72-.07,104.58C85.66,330.48,86.23,338.28,86.57,346.65Z"/><path d="M132.8,119.31c-.34,29.34-24.34,53.22-53.19,52.92C50.27,171.94,26.52,148,26.75,119A53,53,0,0,1,80.39,66.18C109.59,66.55,133.13,90.41,132.8,119.31Z"/><path d="M382.12,119c.12,29.11-23.66,53-52.94,53.19-28.92.2-52.85-23.68-53.12-53-.26-29.09,23.58-53,52.89-53.07A53.07,53.07,0,0,1,382.12,119Z"/></g></g></svg>